<svg width="517" height="116" viewBox="0 0 517 116" fill="none" xmlns="http://www.w3.org/2000/svg">
<path d="M0 30.5263C0 13.6671 14.5097 0 32.4083 0H90.7432C108.642 0 123.152 13.6671 123.152 30.5263V85.4737C123.152 102.333 108.642 116 90.7432 116H32.4083C14.5097 116 0 102.333 0 85.4737V30.5263Z" fill="#3C50E0"/>
<g filter="url(#filter0_d_26_68)">
<path d="M32.4521 30.5262C32.4521 27.1543 35.3541 24.4209 38.9338 24.4209C42.5135 24.4209 45.4155 27.1543 45.4155 30.5262V85.4735C45.4155 88.8454 42.5135 91.5788 38.9338 91.5788C35.3541 91.5788 32.4521 88.8454 32.4521 85.4735V30.5262Z" fill="white"/>
</g>
<g opacity="0.9" filter="url(#filter1_d_26_68)">
<path d="M56.79 54.9466C56.79 51.5747 59.692 48.8413 63.2717 48.8413C66.8514 48.8413 69.7534 51.5747 69.7534 54.9466V85.4729C69.7534 88.8447 66.8514 91.5781 63.2717 91.5781C59.692 91.5781 56.79 88.8447 56.79 85.4729V54.9466Z" fill="white"/>
</g>
<g opacity="0.7" filter="url(#filter2_d_26_68)">
<path d="M81.0566 39.6824C81.0566 36.3106 83.9586 33.5771 87.5383 33.5771C91.118 33.5771 94.02 36.3106 94.02 39.6824V85.4719C94.02 88.8437 91.118 91.5771 87.5383 91.5771C83.9586 91.5771 81.0566 88.8437 81.0566 85.4719V39.6824Z" fill="white"/>
</g>
<path d="M172.375 46.3438H154.094V58.0625H169.375C170.792 58.0625 171.844 58.3854 172.531 59.0312C173.24 59.6562 173.594 60.5 173.594 61.5625C173.594 62.625 173.24 63.4688 172.531 64.0938C171.823 64.7188 170.771 65.0312 169.375 65.0312H154.094V80.125C154.094 82.0417 153.656 83.4688 152.781 84.4062C151.927 85.3229 150.823 85.7812 149.469 85.7812C148.094 85.7812 146.969 85.3125 146.094 84.375C145.24 83.4375 144.812 82.0208 144.812 80.125V44.875C144.812 43.5417 145.01 42.4583 145.406 41.625C145.802 40.7708 146.417 40.1562 147.25 39.7812C148.104 39.3854 149.188 39.1875 150.5 39.1875H172.375C173.854 39.1875 174.948 39.5208 175.656 40.1875C176.385 40.8333 176.75 41.6875 176.75 42.75C176.75 43.8333 176.385 44.7083 175.656 45.375C174.948 46.0208 173.854 46.3438 172.375 46.3438ZM190.75 55.9375V80.5938C190.75 82.3021 190.344 83.5938 189.531 84.4688C188.719 85.3438 187.688 85.7812 186.438 85.7812C185.188 85.7812 184.167 85.3333 183.375 84.4375C182.604 83.5417 182.219 82.2604 182.219 80.5938V56.1875C182.219 54.5 182.604 53.2292 183.375 52.375C184.167 51.5208 185.188 51.0938 186.438 51.0938C187.688 51.0938 188.719 51.5208 189.531 52.375C190.344 53.2292 190.75 54.4167 190.75 55.9375ZM186.531 47.125C185.344 47.125 184.323 46.7604 183.469 46.0312C182.635 45.3021 182.219 44.2708 182.219 42.9375C182.219 41.7292 182.646 40.7396 183.5 39.9688C184.375 39.1771 185.385 38.7812 186.531 38.7812C187.635 38.7812 188.615 39.1354 189.469 39.8438C190.323 40.5521 190.75 41.5833 190.75 42.9375C190.75 44.25 190.333 45.2812 189.5 46.0312C188.667 46.7604 187.677 47.125 186.531 47.125ZM207.344 55.8125V56.8438C208.844 54.8646 210.479 53.4167 212.25 52.5C214.042 51.5625 216.094 51.0938 218.406 51.0938C220.656 51.0938 222.667 51.5833 224.438 52.5625C226.208 53.5417 227.531 54.9271 228.406 56.7188C228.969 57.7604 229.333 58.8854 229.5 60.0938C229.667 61.3021 229.75 62.8438 229.75 64.7188V80.5938C229.75 82.3021 229.354 83.5938 228.562 84.4688C227.792 85.3438 226.781 85.7812 225.531 85.7812C224.26 85.7812 223.229 85.3333 222.438 84.4375C221.646 83.5417 221.25 82.2604 221.25 80.5938V66.375C221.25 63.5625 220.854 61.4167 220.062 59.9375C219.292 58.4375 217.74 57.6875 215.406 57.6875C213.885 57.6875 212.5 58.1458 211.25 59.0625C210 59.9583 209.083 61.1979 208.5 62.7812C208.083 64.0521 207.875 66.4271 207.875 69.9062V80.5938C207.875 82.3229 207.469 83.625 206.656 84.5C205.865 85.3542 204.833 85.7812 203.562 85.7812C202.333 85.7812 201.323 85.3333 200.531 84.4375C199.74 83.5417 199.344 82.2604 199.344 80.5938V55.9375C199.344 54.3125 199.698 53.1042 200.406 52.3125C201.115 51.5 202.083 51.0938 203.312 51.0938C204.062 51.0938 204.74 51.2708 205.344 51.625C205.948 51.9792 206.427 52.5104 206.781 53.2188C207.156 53.9271 207.344 54.7917 207.344 55.8125ZM259.844 80.9688C257.781 82.5729 255.781 83.7812 253.844 84.5938C251.927 85.3854 249.771 85.7812 247.375 85.7812C245.188 85.7812 243.26 85.3542 241.594 84.5C239.948 83.625 238.677 82.4479 237.781 80.9688C236.885 79.4896 236.438 77.8854 236.438 76.1562C236.438 73.8229 237.177 71.8333 238.656 70.1875C240.135 68.5417 242.167 67.4375 244.75 66.875C245.292 66.75 246.635 66.4688 248.781 66.0312C250.927 65.5938 252.76 65.1979 254.281 64.8438C255.823 64.4688 257.49 64.0208 259.281 63.5C259.177 61.25 258.719 59.6042 257.906 58.5625C257.115 57.5 255.458 56.9688 252.938 56.9688C250.771 56.9688 249.135 57.2708 248.031 57.875C246.948 58.4792 246.01 59.3854 245.219 60.5938C244.448 61.8021 243.896 62.6042 243.562 63C243.25 63.375 242.562 63.5625 241.5 63.5625C240.542 63.5625 239.708 63.2604 239 62.6562C238.312 62.0312 237.969 61.2396 237.969 60.2812C237.969 58.7812 238.5 57.3229 239.562 55.9062C240.625 54.4896 242.281 53.3229 244.531 52.4062C246.781 51.4896 249.583 51.0312 252.938 51.0312C256.688 51.0312 259.635 51.4792 261.781 52.375C263.927 53.25 265.438 54.6458 266.312 56.5625C267.208 58.4792 267.656 61.0208 267.656 64.1875C267.656 66.1875 267.646 67.8854 267.625 69.2812C267.625 70.6771 267.615 72.2292 267.594 73.9375C267.594 75.5417 267.854 77.2188 268.375 78.9688C268.917 80.6979 269.188 81.8125 269.188 82.3125C269.188 83.1875 268.771 83.9896 267.938 84.7188C267.125 85.4271 266.198 85.7812 265.156 85.7812C264.281 85.7812 263.417 85.375 262.562 84.5625C261.708 83.7292 260.802 82.5312 259.844 80.9688ZM259.281 68.625C258.031 69.0833 256.208 69.5729 253.812 70.0938C251.438 70.5938 249.792 70.9688 248.875 71.2188C247.958 71.4479 247.083 71.9167 246.25 72.625C245.417 73.3125 245 74.2812 245 75.5312C245 76.8229 245.49 77.9271 246.469 78.8438C247.448 79.7396 248.729 80.1875 250.312 80.1875C252 80.1875 253.552 79.8229 254.969 79.0938C256.406 78.3438 257.458 77.3854 258.125 76.2188C258.896 74.9271 259.281 72.8021 259.281 69.8438V68.625ZM284.094 55.8125V56.8438C285.594 54.8646 287.229 53.4167 289 52.5C290.792 51.5625 292.844 51.0938 295.156 51.0938C297.406 51.0938 299.417 51.5833 301.188 52.5625C302.958 53.5417 304.281 54.9271 305.156 56.7188C305.719 57.7604 306.083 58.8854 306.25 60.0938C306.417 61.3021 306.5 62.8438 306.5 64.7188V80.5938C306.5 82.3021 306.104 83.5938 305.312 84.4688C304.542 85.3438 303.531 85.7812 302.281 85.7812C301.01 85.7812 299.979 85.3333 299.188 84.4375C298.396 83.5417 298 82.2604 298 80.5938V66.375C298 63.5625 297.604 61.4167 296.812 59.9375C296.042 58.4375 294.49 57.6875 292.156 57.6875C290.635 57.6875 289.25 58.1458 288 59.0625C286.75 59.9583 285.833 61.1979 285.25 62.7812C284.833 64.0521 284.625 66.4271 284.625 69.9062V80.5938C284.625 82.3229 284.219 83.625 283.406 84.5C282.615 85.3542 281.583 85.7812 280.312 85.7812C279.083 85.7812 278.073 85.3333 277.281 84.4375C276.49 83.5417 276.094 82.2604 276.094 80.5938V55.9375C276.094 54.3125 276.448 53.1042 277.156 52.3125C277.865 51.5 278.833 51.0938 280.062 51.0938C280.812 51.0938 281.49 51.2708 282.094 51.625C282.698 51.9792 283.177 52.5104 283.531 53.2188C283.906 53.9271 284.094 54.7917 284.094 55.8125ZM345.625 75.2188C345.625 76.2812 345.302 77.4167 344.656 78.625C344.031 79.8333 343.062 80.9896 341.75 82.0938C340.458 83.1771 338.823 84.0521 336.844 84.7188C334.865 85.3854 332.635 85.7188 330.156 85.7188C324.885 85.7188 320.771 84.1875 317.812 81.125C314.854 78.0417 313.375 73.9167 313.375 68.75C313.375 65.25 314.052 62.1562 315.406 59.4688C316.76 56.7812 318.719 54.7083 321.281 53.25C323.844 51.7708 326.906 51.0312 330.469 51.0312C332.677 51.0312 334.698 51.3542 336.531 52C338.385 52.6458 339.948 53.4792 341.219 54.5C342.51 55.5208 343.49 56.6146 344.156 57.7812C344.844 58.9271 345.188 60 345.188 61C345.188 62.0208 344.802 62.8854 344.031 63.5938C343.281 64.3021 342.365 64.6562 341.281 64.6562C340.573 64.6562 339.979 64.4792 339.5 64.125C339.042 63.75 338.521 63.1562 337.938 62.3438C336.896 60.7604 335.802 59.5729 334.656 58.7812C333.531 57.9896 332.094 57.5938 330.344 57.5938C327.823 57.5938 325.792 58.5833 324.25 60.5625C322.708 62.5208 321.938 65.2083 321.938 68.625C321.938 70.2292 322.135 71.7083 322.531 73.0625C322.927 74.3958 323.5 75.5417 324.25 76.5C325 77.4375 325.906 78.1562 326.969 78.6562C328.031 79.1354 329.198 79.375 330.469 79.375C332.177 79.375 333.635 78.9792 334.844 78.1875C336.073 77.3958 337.156 76.1875 338.094 74.5625C338.615 73.6042 339.177 72.8542 339.781 72.3125C340.385 71.7708 341.125 71.5 342 71.5C343.042 71.5 343.906 71.8958 344.594 72.6875C345.281 73.4792 345.625 74.3229 345.625 75.2188ZM376.906 70.5312H360.219C360.24 72.4688 360.625 74.1771 361.375 75.6562C362.146 77.1354 363.156 78.25 364.406 79C365.677 79.75 367.073 80.125 368.594 80.125C369.615 80.125 370.542 80.0104 371.375 79.7812C372.229 79.5312 373.052 79.1562 373.844 78.6562C374.635 78.1354 375.365 77.5833 376.031 77C376.698 76.4167 377.562 75.625 378.625 74.625C379.062 74.25 379.688 74.0625 380.5 74.0625C381.375 74.0625 382.083 74.3021 382.625 74.7812C383.167 75.2604 383.438 75.9375 383.438 76.8125C383.438 77.5833 383.135 78.4896 382.531 79.5312C381.927 80.5521 381.01 81.5417 379.781 82.5C378.573 83.4375 377.042 84.2188 375.188 84.8438C373.354 85.4688 371.24 85.7812 368.844 85.7812C363.365 85.7812 359.104 84.2188 356.062 81.0938C353.021 77.9688 351.5 73.7292 351.5 68.375C351.5 65.8542 351.875 63.5208 352.625 61.375C353.375 59.2083 354.469 57.3542 355.906 55.8125C357.344 54.2708 359.115 53.0938 361.219 52.2812C363.323 51.4479 365.656 51.0312 368.219 51.0312C371.552 51.0312 374.406 51.7396 376.781 53.1562C379.177 54.5521 380.969 56.3646 382.156 58.5938C383.344 60.8229 383.938 63.0938 383.938 65.4062C383.938 67.5521 383.323 68.9479 382.094 69.5938C380.865 70.2188 379.135 70.5312 376.906 70.5312ZM360.219 65.6875H375.688C375.479 62.7708 374.688 60.5938 373.312 59.1562C371.958 57.6979 370.167 56.9688 367.938 56.9688C365.812 56.9688 364.062 57.7083 362.688 59.1875C361.333 60.6458 360.51 62.8125 360.219 65.6875ZM411.312 85H397.312C395.292 85 393.844 84.5521 392.969 83.6562C392.115 82.7396 391.688 81.2917 391.688 79.3125V44.875C391.688 42.8542 392.125 41.4062 393 40.5312C393.896 39.6354 395.333 39.1875 397.312 39.1875H412.156C414.344 39.1875 416.24 39.3229 417.844 39.5938C419.448 39.8646 420.885 40.3854 422.156 41.1562C423.24 41.8021 424.198 42.625 425.031 43.625C425.865 44.6042 426.5 45.6979 426.938 46.9062C427.375 48.0938 427.594 49.3542 427.594 50.6875C427.594 55.2708 425.302 58.625 420.719 60.75C426.74 62.6667 429.75 66.3958 429.75 71.9375C429.75 74.5 429.094 76.8125 427.781 78.875C426.469 80.9167 424.698 82.4271 422.469 83.4062C421.073 83.9896 419.469 84.4062 417.656 84.6562C415.844 84.8854 413.729 85 411.312 85ZM410.625 64.6562H400.969V78.0312H410.938C417.208 78.0312 420.344 75.7708 420.344 71.25C420.344 68.9375 419.531 67.2604 417.906 66.2188C416.281 65.1771 413.854 64.6562 410.625 64.6562ZM400.969 46.1562V58H409.469C411.781 58 413.562 57.7812 414.812 57.3438C416.083 56.9062 417.052 56.0729 417.719 54.8438C418.24 53.9688 418.5 52.9896 418.5 51.9062C418.5 49.5938 417.677 48.0625 416.031 47.3125C414.385 46.5417 411.875 46.1562 408.5 46.1562H400.969ZM445.688 73.4688V80.5938C445.688 82.3229 445.281 83.625 444.469 84.5C443.656 85.3542 442.625 85.7812 441.375 85.7812C440.146 85.7812 439.135 85.3438 438.344 84.4688C437.552 83.5938 437.156 82.3021 437.156 80.5938V56.8438C437.156 53.0104 438.542 51.0938 441.312 51.0938C442.729 51.0938 443.75 51.5417 444.375 52.4375C445 53.3333 445.344 54.6562 445.406 56.4062C446.427 54.6562 447.469 53.3333 448.531 52.4375C449.615 51.5417 451.052 51.0938 452.844 51.0938C454.635 51.0938 456.375 51.5417 458.062 52.4375C459.75 53.3333 460.594 54.5208 460.594 56C460.594 57.0417 460.229 57.9062 459.5 58.5938C458.792 59.2604 458.021 59.5938 457.188 59.5938C456.875 59.5938 456.115 59.4062 454.906 59.0312C453.719 58.6354 452.667 58.4375 451.75 58.4375C450.5 58.4375 449.479 58.7708 448.688 59.4375C447.896 60.0833 447.281 61.0521 446.844 62.3438C446.406 63.6354 446.104 65.1771 445.938 66.9688C445.771 68.7396 445.688 70.9062 445.688 73.4688ZM494.781 68.4375C494.781 70.9792 494.385 73.3229 493.594 75.4688C492.802 77.6146 491.656 79.4583 490.156 81C488.656 82.5417 486.865 83.7292 484.781 84.5625C482.698 85.375 480.354 85.7812 477.75 85.7812C475.167 85.7812 472.844 85.3646 470.781 84.5312C468.719 83.6979 466.927 82.5104 465.406 80.9688C463.906 79.4062 462.76 77.5729 461.969 75.4688C461.198 73.3438 460.812 71 460.812 68.4375C460.812 65.8542 461.208 63.4896 462 61.3438C462.792 59.1979 463.927 57.3646 465.406 55.8438C466.885 54.3229 468.677 53.1562 470.781 52.3438C472.885 51.5104 475.208 51.0938 477.75 51.0938C480.333 51.0938 482.677 51.5104 484.781 52.3438C486.885 53.1771 488.688 54.3646 490.188 55.9062C491.688 57.4479 492.823 59.2812 493.594 61.4062C494.385 63.5312 494.781 65.875 494.781 68.4375ZM486.219 68.4375C486.219 64.9583 485.448 62.25 483.906 60.3125C482.385 58.375 480.333 57.4062 477.75 57.4062C476.083 57.4062 474.615 57.8438 473.344 58.7188C472.073 59.5729 471.094 60.8438 470.406 62.5312C469.719 64.2188 469.375 66.1875 469.375 68.4375C469.375 70.6667 469.708 72.6146 470.375 74.2812C471.062 75.9479 472.031 77.2292 473.281 78.125C474.552 79 476.042 79.4375 477.75 79.4375C480.333 79.4375 482.385 78.4688 483.906 76.5312C485.448 74.5729 486.219 71.875 486.219 68.4375Z" fill="#0067D0"/>
<defs>
<filter id="filter0_d_26_68" x="31.4521" y="23.9209" width="14.9634" height="69.158" filterUnits="userSpaceOnUse" color-interpolation-filters="sRGB">
<feFlood flood-opacity="0" result="BackgroundImageFix"/>
<feColorMatrix in="SourceAlpha" type="matrix" values="0 0 0 0 0 0 0 0 0 0 0 0 0 0 0 0 0 0 127 0" result="hardAlpha"/>
<feOffset dy="0.5"/>
<feGaussianBlur stdDeviation="0.5"/>
<feComposite in2="hardAlpha" operator="out"/>
<feColorMatrix type="matrix" values="0 0 0 0 0 0 0 0 0 0 0 0 0 0 0 0 0 0 0.12 0"/>
<feBlend mode="normal" in2="BackgroundImageFix" result="effect1_dropShadow_26_68"/>
<feBlend mode="normal" in="SourceGraphic" in2="effect1_dropShadow_26_68" result="shape"/>
</filter>
<filter id="filter1_d_26_68" x="55.79" y="48.3413" width="14.9634" height="44.7368" filterUnits="userSpaceOnUse" color-interpolation-filters="sRGB">
<feFlood flood-opacity="0" result="BackgroundImageFix"/>
<feColorMatrix in="SourceAlpha" type="matrix" values="0 0 0 0 0 0 0 0 0 0 0 0 0 0 0 0 0 0 127 0" result="hardAlpha"/>
<feOffset dy="0.5"/>
<feGaussianBlur stdDeviation="0.5"/>
<feComposite in2="hardAlpha" operator="out"/>
<feColorMatrix type="matrix" values="0 0 0 0 0 0 0 0 0 0 0 0 0 0 0 0 0 0 0.12 0"/>
<feBlend mode="normal" in2="BackgroundImageFix" result="effect1_dropShadow_26_68"/>
<feBlend mode="normal" in="SourceGraphic" in2="effect1_dropShadow_26_68" result="shape"/>
</filter>
<filter id="filter2_d_26_68" x="80.0566" y="33.0771" width="14.9634" height="60" filterUnits="userSpaceOnUse" color-interpolation-filters="sRGB">
<feFlood flood-opacity="0" result="BackgroundImageFix"/>
<feColorMatrix in="SourceAlpha" type="matrix" values="0 0 0 0 0 0 0 0 0 0 0 0 0 0 0 0 0 0 127 0" result="hardAlpha"/>
<feOffset dy="0.5"/>
<feGaussianBlur stdDeviation="0.5"/>
<feComposite in2="hardAlpha" operator="out"/>
<feColorMatrix type="matrix" values="0 0 0 0 0 0 0 0 0 0 0 0 0 0 0 0 0 0 0.12 0"/>
<feBlend mode="normal" in2="BackgroundImageFix" result="effect1_dropShadow_26_68"/>
<feBlend mode="normal" in="SourceGraphic" in2="effect1_dropShadow_26_68" result="shape"/>
</filter>
</defs>
</svg>
