<svg width="392" height="291" viewBox="0 0 392 291" fill="none" xmlns="http://www.w3.org/2000/svg">
<g clip-path="url(#clip0_55_3437)">
<path d="M349.372 21.4742C350.288 20.1529 351.059 19.8121 351.697 19.9196C352.405 20.0388 353.236 20.7333 354.17 22.1852C356.011 25.0465 357.917 30.3035 359.973 37.152C362.023 43.9821 364.202 52.3262 366.605 61.3219C371.408 79.2963 377.102 99.8596 384.411 115.931C388.066 123.967 392.138 130.913 396.729 135.856C401.189 140.659 406.178 143.611 411.775 143.777V368.1H-40.0518V185.253C-27.6629 178.685 -17.5666 176.057 -9.22949 176.053C-0.843199 176.05 5.79631 178.7 11.2354 182.718C16.6837 186.744 20.9386 192.151 24.5273 197.674C26.321 200.435 27.9448 203.218 29.4678 205.867C30.9882 208.511 32.412 211.03 33.7979 213.242C35.1829 215.452 36.5454 217.382 37.9502 218.844C39.3534 220.306 40.8348 221.339 42.4639 221.692C45.7726 222.409 49.3153 220.273 53.6006 214.547C57.9162 208.781 63.1316 199.183 69.7812 184.479C76.4345 169.768 84.5368 149.916 94.6221 123.624C97.6272 115.789 100.472 110.948 103.206 108.334C104.566 107.033 105.882 106.3 107.161 106.009C108.436 105.719 109.715 105.859 111.021 106.371C113.664 107.406 116.38 109.947 119.246 113.423C122.102 116.888 125.049 121.207 128.179 125.72C134.41 134.706 141.369 144.479 149.623 149.36C153.771 151.812 158.268 153.045 163.172 152.314C168.069 151.584 173.311 148.905 178.972 143.652C195.968 127.881 207.609 107.558 215.998 88.774C220.193 79.3798 223.578 70.3633 226.413 62.486C229.252 54.5978 231.53 47.8777 233.525 43.0348C234.523 40.6135 235.438 38.6899 236.304 37.3375C236.736 36.6617 237.146 36.1447 237.534 35.7828C237.923 35.4201 238.266 35.2357 238.565 35.1774C239.104 35.0724 239.773 35.3455 240.608 36.5524C241.432 37.7425 242.306 39.6931 243.253 42.5367C247.042 53.9103 251.785 78.8692 259.572 123.53C266.23 161.716 271.611 190.877 276.723 209.31C279.274 218.513 281.776 225.109 284.371 228.816C285.668 230.668 287.04 231.875 288.525 232.263C290.047 232.661 291.557 232.167 293.028 230.92C294.489 229.681 295.962 227.663 297.473 224.886C298.987 222.103 300.559 218.523 302.202 214.128C305.489 205.336 309.082 193.242 313.108 177.645C321.161 146.45 330.959 101.192 343.51 40.2135C344.554 35.1384 345.561 31.1107 346.54 28.0162C347.522 24.9131 348.466 22.7816 349.372 21.4742Z" stroke="#0067D0" stroke-miterlimit="3.86874" stroke-linecap="round"/>
<path d="M94.1549 123.444C13.4831 333.758 59.9075 131.381 -40.5518 184.951V368.6H412.276V143.285C367.374 143.285 359.763 -41.2354 343.02 40.1123C292.816 284.03 286.702 276.219 260.065 123.444C228.932 -55.1189 246.337 80.4596 178.632 143.285C133.73 184.951 118.248 60.6333 94.1549 123.444Z" fill="url(#paint0_linear_55_3437)"/>
</g>
<defs>
<linearGradient id="paint0_linear_55_3437" x1="185.862" y1="19.4" x2="185.862" y2="320.982" gradientUnits="userSpaceOnUse">
<stop stop-color="#0067D0"/>
<stop offset="0.520833" stop-color="#0067D0" stop-opacity="0.161053"/>
<stop offset="0.890625" stop-color="#0067D0" stop-opacity="0"/>
</linearGradient>
<clipPath id="clip0_55_3437">
<rect width="392" height="291" fill="white"/>
</clipPath>
</defs>
</svg>
